<?xml version="1.0" standalone="no"?>
<!DOCTYPE svg PUBLIC "-//W3C//DTD SVG 20010904//EN"
 "http://www.w3.org/TR/2001/REC-SVG-20010904/DTD/svg10.dtd">
<svg version="1.0" xmlns="http://www.w3.org/2000/svg"
 width="225.000000pt" height="225.000000pt" viewBox="0 0 225.000000 225.000000"
 preserveAspectRatio="xMidYMid meet">
<metadata>
Created by potrace 1.11, written by Peter Selinger 2001-2013
</metadata>
<g transform="translate(0.000000,225.000000) scale(0.100000,-0.100000)"
fill="#000000" stroke="none">
<path d="M360 1956 l0 -55 48 -6 c57 -8 113 -22 128 -32 38 -27 39 -38 42
-698 3 -723 2 -728 -59 -758 -20 -9 -63 -21 -95 -25 l-59 -7 -3 -58 -3 -57
386 0 385 0 0 59 0 58 -64 6 c-36 3 -80 13 -99 21 -57 23 -61 52 -62 361 l0
270 32 3 c30 3 43 -11 349 -387 l318 -391 228 0 229 0 -3 57 -3 58 -47 7 c-95
13 -115 32 -395 373 -144 176 -262 322 -262 325 -1 3 23 11 52 18 141 33 283
135 332 238 35 73 50 183 37 268 -27 172 -136 294 -319 357 -124 42 -214 49
-665 49 l-428 0 0 -54z m886 -143 c76 -30 120 -68 151 -131 24 -50 28 -69 28
-147 0 -77 -4 -98 -27 -147 -29 -63 -83 -108 -164 -141 -52 -20 -293 -53 -318
-44 -16 6 -17 31 -14 309 2 167 7 309 12 317 14 22 266 10 332 -16z"/>
</g>
</svg>
